<svg width="20" height="20" viewBox="0 0 20 20" fill="none" xmlns="http://www.w3.org/2000/svg">
<path fill-rule="evenodd" clip-rule="evenodd" d="M14.8889 4C15.4756 4 15.9733 4.3675 16.1511 4.88375L18 10.125V17.125C18 17.6062 17.6 18 17.1111 18H16.2222C15.7333 18 15.3333 17.6062 15.3333 17.125V16.25H4.66667V17.125C4.66667 17.6062 4.26667 18 3.77778 18H2.88889C2.4 18 2 17.6062 2 17.125V10.125L3.84889 4.88375C4.03556 4.3675 4.52444 4 5.11111 4H14.8889ZM4.16669 13.25C4.16669 13.9417 4.72502 14.5 5.41669 14.5C6.10835 14.5 6.66669 13.9417 6.66669 13.25C6.66669 12.5583 6.10835 12 5.41669 12C4.72502 12 4.16669 12.5583 4.16669 13.25ZM14.5833 14.5C13.8916 14.5 13.3333 13.9417 13.3333 13.25C13.3333 12.5583 13.8916 12 14.5833 12C15.275 12 15.8333 12.5583 15.8333 13.25C15.8333 13.9417 15.275 14.5 14.5833 14.5ZM5.28571 6L4 10H16L14.7143 6H5.28571Z" fill="#A2A2A2"/>
</svg>
